<svg width="11" height="19" viewBox="0 0 11 19" fill="none" xmlns="http://www.w3.org/2000/svg">
<path d="M7.70928 0C6.48265 0 5.30626 0.487073 4.43891 1.35407C3.57155 2.22106 3.08428 3.39696 3.08428 4.62308V7.19701H0.609277C0.485013 7.19701 0.384277 7.2977 0.384277 7.42192V10.8205C0.384277 10.9447 0.485013 11.0454 0.609277 11.0454H3.08428V18.0175C3.08428 18.1417 3.18501 18.2424 3.30928 18.2424H6.70928C6.83354 18.2424 6.93428 18.1417 6.93428 18.0175V11.0454H9.4312C9.53444 11.0454 9.62444 10.9752 9.64948 10.8751L10.4995 7.47646C10.535 7.33452 10.4276 7.19701 10.2812 7.19701H6.93428V4.62308C6.93428 4.41762 7.01593 4.22058 7.16127 4.0753C7.30661 3.93002 7.50373 3.8484 7.70928 3.8484H10.3093C10.4335 3.8484 10.5343 3.74771 10.5343 3.62349V0.224907C10.5343 0.100694 10.4335 0 10.3093 0H7.70928Z" fill="#F0F0F0"/>
</svg>
