<svg width="19" height="19" viewBox="0 0 19 19" fill="none" xmlns="http://www.w3.org/2000/svg">
<path d="M9.19208 5.95509C7.39715 5.95509 5.94208 7.40956 5.94208 9.20374C5.94208 10.9979 7.39715 12.4524 9.19208 12.4524C10.987 12.4524 12.4421 10.9979 12.4421 9.20374C12.4421 7.40956 10.987 5.95509 9.19208 5.95509Z" fill="#F0F0F0"/>
<path fill-rule="evenodd" clip-rule="evenodd" d="M3.96162 0.288914C7.40974 -0.0963045 10.9744 -0.0963045 14.4226 0.288914C16.321 0.500999 17.8522 1.99616 18.075 3.90042C18.4872 7.42396 18.4872 10.9835 18.075 14.5071C17.8522 16.4113 16.321 17.9065 14.4226 18.1186C10.9744 18.5038 7.40974 18.5038 3.96162 18.1186C2.06322 17.9065 0.532024 16.4113 0.309211 14.5071C-0.10307 10.9835 -0.10307 7.42396 0.309211 3.90042C0.532024 1.99616 2.06322 0.500999 3.96162 0.288914ZM14.1921 3.20623C13.6398 3.20623 13.1921 3.65376 13.1921 4.20582C13.1921 4.75787 13.6398 5.2054 14.1921 5.2054C14.7444 5.2054 15.1921 4.75787 15.1921 4.20582C15.1921 3.65376 14.7444 3.20623 14.1921 3.20623ZM4.44208 9.20374C4.44208 6.58148 6.56873 4.45571 9.19208 4.45571C11.8154 4.45571 13.9421 6.58148 13.9421 9.20374C13.9421 11.826 11.8154 13.9518 9.19208 13.9518C6.56873 13.9518 4.44208 11.826 4.44208 9.20374Z" fill="#F0F0F0"/>
</svg>
