<svg width="204" height="38" viewBox="0 0 204 38" fill="none" xmlns="http://www.w3.org/2000/svg">
<path d="M19.5 0L23.7658 13.1287H37.5701L26.4022 21.2426L30.6679 34.3713L19.5 26.2574L8.33208 34.3713L12.5978 21.2426L1.42993 13.1287H15.2342L19.5 0Z" fill="#141613"/>
<path d="M61 0L65.1535 13.1287H78.5945L67.7205 21.2426L71.874 34.3713L61 26.2574L50.126 34.3713L54.2795 21.2426L43.4055 13.1287H56.8465L61 0Z" fill="#141613"/>
<path d="M102 0L106.154 13.1287H119.595L108.721 21.2426L112.874 34.3713L102 26.2574L91.126 34.3713L95.2795 21.2426L84.4055 13.1287H97.8465L102 0Z" fill="#141613"/>
<path d="M143 0L147.154 13.1287H160.595L149.721 21.2426L153.874 34.3713L143 26.2574L132.126 34.3713L136.279 21.2426L125.405 13.1287H138.846L143 0Z" fill="#141613"/>
<path d="M184.5 0L188.766 13.1287H202.57L191.402 21.2426L195.668 34.3713L184.5 26.2574L173.332 34.3713L177.598 21.2426L166.43 13.1287H180.234L184.5 0Z" fill="#141613"/>
</svg>
