<svg width="36" height="36" viewBox="0 0 36 36" fill="none" xmlns="http://www.w3.org/2000/svg">
<g filter="url(#filter0_d_285_487)">
<path d="M29.5023 3.73333H9.82088L8.13926 0.574331C7.9505 0.219749 7.59342 0 7.206 0H5.06867C4.47846 0 4 0.501441 4 1.12C4 1.73856 4.47846 2.24 5.06867 2.24H6.57848L8.23804 5.35756L12.0654 14.2328L12.0693 14.2418L12.4064 15.0236L8.56373 19.3193C8.28743 19.6282 8.20094 20.074 8.3402 20.4714C8.47945 20.8688 8.82065 21.15 9.22202 21.1981L12.7246 21.6176C17.1057 22.1424 21.5295 22.1424 25.9106 21.6176L29.4132 21.1981C29.9996 21.1279 30.4206 20.5727 30.3536 19.9582C30.2866 19.3436 29.7569 18.9023 29.1705 18.9726L25.6679 19.3921C21.4481 19.8975 17.1871 19.8975 12.9673 19.3921L11.5773 19.2256L14.3977 16.0727C14.4249 16.0422 14.4503 16.0105 14.4737 15.9778L15.5464 16.1241C17.0495 16.3291 18.569 16.3693 20.0801 16.244C23.6045 15.9519 26.8709 14.1943 29.1514 11.3629L29.9751 10.3402C30.0028 10.3059 30.0284 10.2698 30.052 10.2322L31.5871 7.7804C32.6752 6.04251 31.4857 3.73333 29.5023 3.73333Z" fill="#E0C56A"/>
<path d="M11.4807 23.52C10.3003 23.52 9.34334 24.5229 9.34334 25.76C9.34334 26.9971 10.3003 28 11.4807 28C12.6611 28 13.618 26.9971 13.618 25.76C13.618 24.5229 12.6611 23.52 11.4807 23.52Z" fill="#E0C56A"/>
<path d="M25.0171 25.76C25.0171 24.5229 25.9741 23.52 27.1545 23.52C28.3349 23.52 29.2918 24.5229 29.2918 25.76C29.2918 26.9971 28.3349 28 27.1545 28C25.9741 28 25.0171 26.9971 25.0171 25.76Z" fill="#E0C56A"/>
</g>
<defs>
<filter id="filter0_d_285_487" x="0" y="0" width="36" height="36" filterUnits="userSpaceOnUse" color-interpolation-filters="sRGB">
<feFlood flood-opacity="0" result="BackgroundImageFix"/>
<feColorMatrix in="SourceAlpha" type="matrix" values="0 0 0 0 0 0 0 0 0 0 0 0 0 0 0 0 0 0 127 0" result="hardAlpha"/>
<feOffset dy="4"/>
<feGaussianBlur stdDeviation="2"/>
<feComposite in2="hardAlpha" operator="out"/>
<feColorMatrix type="matrix" values="0 0 0 0 0 0 0 0 0 0 0 0 0 0 0 0 0 0 0.25 0"/>
<feBlend mode="normal" in2="BackgroundImageFix" result="effect1_dropShadow_285_487"/>
<feBlend mode="normal" in="SourceGraphic" in2="effect1_dropShadow_285_487" result="shape"/>
</filter>
</defs>
</svg>
