<svg width="28" height="28" viewBox="0 0 28 28" fill="none" xmlns="http://www.w3.org/2000/svg">
<path d="M25.5023 3.73333H5.82088L4.13926 0.574331C3.9505 0.219749 3.59342 0 3.206 0H1.06867C0.478459 0 0 0.501441 0 1.12C0 1.73856 0.478459 2.24 1.06867 2.24H2.57848L4.23804 5.35756L8.0654 14.2328L8.06933 14.2418L8.40643 15.0236L4.56373 19.3193C4.28743 19.6282 4.20094 20.074 4.3402 20.4714C4.47945 20.8688 4.82065 21.15 5.22202 21.1981L8.72459 21.6176C13.1057 22.1424 17.5295 22.1424 21.9106 21.6176L25.4132 21.1981C25.9996 21.1279 26.4206 20.5727 26.3536 19.9582C26.2866 19.3436 25.7569 18.9023 25.1705 18.9726L21.6679 19.3921C17.4481 19.8975 13.1871 19.8975 8.96728 19.3921L7.57727 19.2256L10.3977 16.0727C10.4249 16.0422 10.4503 16.0105 10.4737 15.9778L11.5464 16.1241C13.0495 16.3291 14.569 16.3693 16.0801 16.244C19.6045 15.9519 22.8709 14.1943 25.1514 11.3629L25.9751 10.3402C26.0028 10.3059 26.0284 10.2698 26.052 10.2322L27.5871 7.7804C28.6752 6.04251 27.4857 3.73333 25.5023 3.73333Z" fill="#E0C56A"/>
<path d="M7.48068 23.52C6.30026 23.52 5.34334 24.5229 5.34334 25.76C5.34334 26.9971 6.30026 28 7.48068 28C8.66109 28 9.61801 26.9971 9.61801 25.76C9.61801 24.5229 8.66109 23.52 7.48068 23.52Z" fill="#E0C56A"/>
<path d="M21.0171 25.76C21.0171 24.5229 21.9741 23.52 23.1545 23.52C24.3349 23.52 25.2918 24.5229 25.2918 25.76C25.2918 26.9971 24.3349 28 23.1545 28C21.9741 28 21.0171 26.9971 21.0171 25.76Z" fill="#E0C56A"/>
</svg>
