<svg width="11" height="19" viewBox="0 0 11 19" fill="none" xmlns="http://www.w3.org/2000/svg">
<path d="M7.325 0C6.09837 0 4.92199 0.487073 4.05463 1.35407C3.18728 2.22106 2.7 3.39696 2.7 4.62308V7.19701H0.225C0.100736 7.19701 0 7.2977 0 7.42192V10.8205C0 10.9447 0.100736 11.0454 0.225 11.0454H2.7V18.0175C2.7 18.1417 2.80074 18.2424 2.925 18.2424H6.325C6.44926 18.2424 6.55 18.1417 6.55 18.0175V11.0454H9.04692C9.15017 11.0454 9.24016 10.9752 9.2652 10.8751L10.1152 7.47646C10.1507 7.33452 10.0433 7.19701 9.89692 7.19701H6.55V4.62308C6.55 4.41762 6.63165 4.22058 6.77699 4.0753C6.92233 3.93002 7.11946 3.8484 7.325 3.8484H9.925C10.0493 3.8484 10.15 3.74771 10.15 3.62349V0.224907C10.15 0.100694 10.0493 0 9.925 0H7.325Z" fill="#F0F0F0"/>
</svg>
