<svg width="11" height="19" viewBox="0 0 11 19" fill="none" xmlns="http://www.w3.org/2000/svg">
<path d="M7.325 0.242432C6.09837 0.242432 4.92199 0.729505 4.05463 1.5965C3.18728 2.4635 2.7 3.63939 2.7 4.86551V7.43944H0.225C0.100736 7.43944 0 7.54014 0 7.66435V11.0629C0 11.1871 0.100736 11.2878 0.225 11.2878H2.7V18.2599C2.7 18.3842 2.80074 18.4849 2.925 18.4849H6.325C6.44926 18.4849 6.55 18.3842 6.55 18.2599V11.2878H9.04692C9.15017 11.2878 9.24016 11.2176 9.2652 11.1175L10.1152 7.7189C10.1507 7.57695 10.0433 7.43944 9.89692 7.43944H6.55V4.86551C6.55 4.66005 6.63165 4.46301 6.77699 4.31773C6.92233 4.17245 7.11946 4.09083 7.325 4.09083H9.925C10.0493 4.09083 10.15 3.99014 10.15 3.86593V0.467338C10.15 0.343126 10.0493 0.242432 9.925 0.242432H7.325Z" fill="#E0C56A"/>
</svg>
