<svg width="19" height="19" viewBox="0 0 19 19" fill="none" xmlns="http://www.w3.org/2000/svg">
<path d="M9.19208 6.36256C7.39715 6.36256 5.94208 7.81703 5.94208 9.61121C5.94208 11.4054 7.39715 12.8599 9.19208 12.8599C10.987 12.8599 12.4421 11.4054 12.4421 9.61121C12.4421 7.81703 10.987 6.36256 9.19208 6.36256Z" fill="#E0C56A"/>
<path fill-rule="evenodd" clip-rule="evenodd" d="M3.96162 0.696384C7.40974 0.311166 10.9744 0.311166 14.4226 0.696384C16.321 0.90847 17.8522 2.40363 18.075 4.30789C18.4872 7.83143 18.4872 11.391 18.075 14.9145C17.8522 16.8188 16.321 18.314 14.4226 18.526C10.9744 18.9113 7.40974 18.9113 3.96162 18.526C2.06322 18.314 0.532024 16.8188 0.309211 14.9145C-0.10307 11.391 -0.10307 7.83143 0.309211 4.30789C0.532024 2.40363 2.06322 0.90847 3.96162 0.696384ZM14.1921 3.6137C13.6398 3.6137 13.1921 4.06123 13.1921 4.61329C13.1921 5.16534 13.6398 5.61287 14.1921 5.61287C14.7444 5.61287 15.1921 5.16534 15.1921 4.61329C15.1921 4.06123 14.7444 3.6137 14.1921 3.6137ZM4.44208 9.61121C4.44208 6.98895 6.56873 4.86319 9.19208 4.86319C11.8154 4.86319 13.9421 6.98895 13.9421 9.61121C13.9421 12.2335 11.8154 14.3592 9.19208 14.3592C6.56873 14.3592 4.44208 12.2335 4.44208 9.61121Z" fill="#E0C56A"/>
</svg>
